<mxfile host="app.diagrams.net" modified="2023-08-17T06:17:12.578Z" agent="Mozilla/5.0 (Macintosh; Intel Mac OS X 10_15_7) AppleWebKit/537.36 (KHTML, like Gecko) Chrome/115.0.0.0 Safari/537.36" version="21.6.8" etag="jx41FgWRYK8i77DtMXq9" type="github">
  <diagram name="Page-1" id="_quWdB7AGD1D7M2hZogJ">
    <mxGraphModel>
      <root>
        <mxCell id="0" />
        <mxCell id="1" parent="0" />
      </root>
    </mxGraphModel>
  </diagram>
</mxfile>
